<svg xmlns="http://www.w3.org/2000/svg" xmlns:xlink="http://www.w3.org/1999/xlink" width="200px" height="200px" viewBox="-100 -100 200 200" preserveAspectRatio="xMidYMid meet"  ><defs id="svgEditorDefs"><polygon id="svgEditorShapeDefs" fill="khaki" stroke="black" style="vector-effect: non-scaling-stroke; stroke-width: 1px;"/><linearGradient gradientUnits="objectBoundingBox" id="lgrd2-black-white" spreadMethod="pad" x1="0%" x2="100%" y1="0%" y2="100%"><stop offset="0%" stop-color="black"/><stop offset="100%" stop-color="white"/></linearGradient><radialGradient cx="45%" cy="45%" fx="30%" fy="30%" gradientUnits="objectBoundingBox" id="rgrd3-b"><stop offset="0%" stop-color="#f9a5a5"/><stop offset="50%" stop-color="#f98585"/><stop offset="100%" stop-color="#f96b6b"/></radialGradient><linearGradient gradientUnits="objectBoundingBox" id="lgrd6-arc" spreadMethod="pad" x1="0.52" x2="0.55" y1="1" y2="0"><stop offset="0.11" style="stop-color:red;stop-opacity:1;"/><stop offset="0.265" style="stop-color:rgb(255, 140, 0);stop-opacity:0.735;"/><stop offset="0.54" stop-color="yellow"/><stop offset="0.7" stop-color="rgb(50, 205, 50)"/><stop offset="0.79" stop-color="#0071FF" stop-opacity="0.605"/><stop offset="1" stop-color="rgb(148, 0, 211)"/></linearGradient><linearGradient gradientUnits="objectBoundingBox" id="lrgd2-e1" spreadMethod="pad" x1="0%" x2="100%" y1="0%" y2="0%"><stop offset="0%" stop-color="lightblue"/><stop offset="100%" stop-color="#ef5b2b"/></linearGradient><linearGradient gradientUnits="objectBoundingBox" id="lgrd2-peachpuff-sienna-h" spreadMethod="pad" x1="0%" x2="100%" y1="0%" y2="0%"><stop offset="0%" style="stop-color:peachpuff;  stop-opacity:1;"/><stop offset="100%" style="stop-color:sienna;  stop-opacity:1"/></linearGradient><linearGradient gradientUnits="objectBoundingBox" id="lgrd2-b" spreadMethod="pad" x1="0" x2="100%" y1="0" y2="0"><stop offset="0%" stop-color="#BBC42A"/><stop offset="100%" stop-color="#ED6E46"/></linearGradient><linearGradient gradientUnits="objectBoundingBox" id="lgrd2-fire" spreadMethod="pad" x1="0%" x2="100%" y1="0%" y2="0%"><stop offset="0%" style="stop-color:rgb(255,255,0);stop-opacity:1"/><stop offset="100%" style="stop-color:rgb(255,0,0);stop-opacity:1"/></linearGradient><pattern height="10" id="hatch-blue-dash-45" patternTransform="rotate(45) scale(0.4)" patternUnits="userSpaceOnUse" viewBox="0 0 24 10" width="24" x="0" y="0"><line style="stroke:blue;stroke-width:1px;stroke-dasharray:4,4;" x1="0" x2="24" y1="5" y2="5"/></pattern><pattern height="10" id="hatch-blue-45" patternTransform="rotate(45) scale(0.4)" patternUnits="userSpaceOnUse" viewBox="0 0 10 10" width="10" x="0" y="0"><line style="stroke:blue;stroke-width:1px;" x1="0" x2="10" y1="5" y2="5"/></pattern><linearGradient gradientTransform="skewX(-45)" gradientUnits="objectBoundingBox" id="lgrd2-c-repeat" spreadMethod="repeat" x1="0%" x2="5%" y1="0%" y2="0%"><stop id="c1" offset="5%" stop-color="red" stop-opacity="0.8"/><stop id="c2" offset="75%" stop-color="yellow" stop-opacity="1"/></linearGradient><linearGradient gradientUnits="objectBoundingBox" id="lrgd2-e1-repeat" spreadMethod="repeat" x1="20%" x2="40%" y1="0%" y2="0%"><stop offset="0%" stop-color="lightblue"/><stop offset="100%" stop-color="#ef5b2b"/></linearGradient><radialGradient cx="50%" cy="50%" fx="50%" fy="50%" id="rgrd2-white-red" r="50%"><stop offset="0%" style="stop-color:white;stop-opacity:0"/><stop offset="100%" style="stop-color:red;stop-opacity:1"/></radialGradient><radialGradient cx="50%" cy="50%" fx="50%" fy="50%" gradientUnits="objectBoundingBox" id="rgrd2-a" r="5%" spreadMethod="reflect"><stop id="c1" offset="5%" stop-color="red" stop-opacity="1"/><stop id="c2" offset="95%" stop-color="yellow" stop-opacity="1"/></radialGradient><symbol id="1f63a" viewBox="0 0 64 64" preserveAspectRatio="xMidYMid meet"><rect x="0" y="0" width="64" height="64" style="stroke:none;fill:none;"/><g xmlns="http://www.w3.org/2000/svg"><path d="M60.861,2c1.797,13.431,1.51,24.233-1.166,31.132L34.889,14.677C39.816,9.584,49.818,3.459,60.861,2z" fill="#dadee0"/><path d="m57.738 32.18l-10.254-13.253c0 0 1.938-7.285 11.615-12.438 2.901 11.656-1.361 25.691-1.361 25.691" fill="#f7a4a4"/><path d="m53.836 29.16l-6.352-8.209c0 0 2.574-5.02 8.568-8.216-3.497 7.563-2.216 16.425-2.216 16.425" fill="#f78d8d"/><path d="M3.139,2c-1.797,13.431-1.51,24.233,1.166,31.132l24.809-18.455C24.186,9.584,14.182,3.459,3.139,2z" fill="#dadee0"/><path d="M6.262,32.177l10.256-13.253c0,0-1.939-7.285-11.617-12.438C2,18.142,6.262,32.177,6.262,32.177z" fill="#f7a4a4"/><path d="m10.166 29.16l6.352-8.209c0 0-2.574-5.02-8.568-8.216 3.497 7.563 2.216 16.425 2.216 16.425" fill="#f78d8d"/><path d="m58.2 50.754c.846-.881 1.416-1.633 1.662-2.162 1.629-2.643 2.143-5.342 2.143-5.342l-2 .424c0 0 2.318-2.463 1.691-7.793l-1.945 2.102c0 0 1.945-5.41.254-10.4l-2.152 1.588c0 0 .654-2.031.053-3.422l-.932.729c0 0 1.689-4.665.154-6.625-.855 2.827-1.871 2.784-1.871 2.784s1.242-2.116.273-3c-.986 1.594-1.807.558-1.768.079.055-.637-.193-1.534 2.703-1.957-2.314-1.414-5.05-.43-5.05-.43s.098-1.489 2.123-1.43c-1.871-1.593-4.48-.648-4.48-.648l.006.017c-4.111-3.11-9.645-4.902-17.05-4.902s-12.941 1.792-17.05 4.902l.006-.017c0 0-2.609-.944-4.48.648 2.027-.06 2.125 1.43 2.125 1.43s-2.742-.984-5.057.43c2.898.423 2.65 1.32 2.703 1.957.039.479-.779 1.515-1.768-.079-.967.887.275 3 .275 3s-1.016.043-1.871-2.784c-1.537 1.96.154 6.625.154 6.625l-.932-.729c-.602 1.391.053 3.422.053 3.422l-2.154-1.588c-1.691 4.99.254 10.4.254 10.4l-1.945-2.102c-.625 5.33 1.691 7.793 1.691 7.793l-2-.424c0 0 .514 2.694 2.141 5.339.25.534.834 1.304 1.699 2.202.023.024.043.049.066.072v-.004c4.067 4.183 14.213 11.141 26.09 11.141 11.883 0 22.03-6.96 26.1-11.142v.005c.035-.036.066-.072.099-.109" fill="#dadee0"/><g fill="#94989b"><path d="m37.686 10.763c-1.762-.258-3.65-.401-5.686-.401s-3.926.144-5.689.401c.736 3.856 2.75 6.583 5.688 11.585 2.98-5.079 4.964-7.756 5.687-11.585"/><path d="m46.813 13.785c-1.908-1.092-4.072-1.944-6.523-2.523.59 2.29 1.857 3.921 3.627 6.935 1.237-2.111 2.216-2.663 2.896-4.412"/><path d="m23.709 11.263c-2.451.579-4.615 1.431-6.521 2.522.686 1.765 1.666 2.323 2.891 4.411 1.794-3.057 3.048-4.664 3.63-6.933"/></g><g fill="#4c5359"><path d="m36.04 38.767c-.811-.945-3.299-1.018-4.04-1.018-.742 0-3.232.072-4.04 1.018-.576.674-.131 2.344 1.406 3.785.969.91 1.895 1.197 2.637 1.197.744 0 1.67-.287 2.639-1.197 1.535-1.442 1.982-3.112 1.404-3.785"/><path d="m43.744 45.861c0 4.74-3.9 10.275-11.744 10.275s-11.742-5.535-11.742-10.275c0 0 3.898 0 11.742 0s11.744 0 11.744 0"/></g><path d="m32 51.38c-4.539 0-5.834 3.345-5.834 3.345.688 1.49 10.98 1.489 11.666 0 0 0-1.295-3.345-5.832-3.345" fill="#ff717f"/><path d="m32 56.87c-8.104 0-12.477-5.671-12.477-11.01v-.733h24.953v.733c.001 5.338-4.372 11.01-12.476 11.01m-10.977-10.275c.385 4.396 4.205 8.808 10.977 8.808 6.773 0 10.592-4.412 10.977-8.808h-21.954" fill="#4c5359"/><path d="m24.299 30.84c0 0-.484-4.569-4.508-6.03-4.539-1.651-7.637 2.386-8.477 4.694-1.24 3.407.316 7.133.777 7.992.307.566 3.66 3.241 11.221.709.001 0 1.881-3.789.987-7.361" fill="#fff"/><path d="m24.299 30.84c-.404-1.559-1.133-3.039-2.254-4.094-.547-.535-1.18-.962-1.869-1.245-.346-.146-.695-.255-1.074-.347-.338-.083-.719-.125-1.076-.139-1.451-.041-2.832.578-3.896 1.6-1.061 1.01-1.938 2.329-2.289 3.713-.383 1.406-.313 2.951.021 4.435.16.743.391 1.487.688 2.173l.113.243c-.031-.054.014.022.018.026.002 0 0-.005-.002-.006l.055.063c.098.103.23.209.369.312.283.203.602.384.941.532 1.365.595 2.949.792 4.518.751 1.586-.006 3.168-.31 4.752-.655-1.479.668-3.057 1.128-4.691 1.388-1.635.219-3.361.197-5.01-.396-.412-.147-.814-.334-1.207-.574-.195-.124-.385-.262-.576-.441-.049-.048-.092-.091-.15-.159l-.098-.124-.063-.102-.156-.299c-.379-.78-.662-1.574-.879-2.4-.416-1.645-.529-3.423-.09-5.15.49-1.739 1.49-3.206 2.791-4.381 1.305-1.15 3.121-1.924 4.922-1.71.445.051.867.126 1.307.269.396.126.811.285 1.189.498.768.412 1.447.973 1.984 1.634 1.048 1.342 1.638 2.963 1.714 4.585" fill="#b2b6b8"/><path d="m39.699 30.84c0 0 .484-4.568 4.508-6.03 4.539-1.651 7.637 2.387 8.477 4.694 1.24 3.407-.316 7.133-.777 7.992-.307.566-3.66 3.241-11.221.709 0 0-1.881-3.789-.987-7.361" fill="#fff"/><path d="m39.699 30.84c.076-1.622.666-3.243 1.715-4.587.537-.661 1.219-1.222 1.984-1.634.379-.213.793-.372 1.191-.498.438-.143.859-.218 1.307-.269 1.799-.214 3.615.56 4.92 1.71 1.301 1.175 2.301 2.642 2.791 4.382.439 1.728.326 3.505-.088 5.15-.219.825-.502 1.619-.881 2.399l-.156.299-.063.102-.098.124c-.059.068-.102.111-.15.159-.191.18-.381.317-.576.441-.393.24-.795.427-1.207.574-1.65.593-3.377.614-5.01.396-1.635-.26-3.213-.72-4.691-1.388 1.584.346 3.166.649 4.752.655 1.568.041 3.152-.156 4.518-.751.34-.148.658-.329.941-.532.139-.103.271-.209.369-.312l.055-.063c-.002.001-.004.006-.002.007.004-.005.049-.081.018-.027l.113-.243c.297-.686.527-1.43.688-2.173.334-1.483.404-3.03.021-4.435-.352-1.384-1.229-2.705-2.289-3.713-1.064-1.021-2.445-1.641-3.896-1.6-.357.014-.738.056-1.076.139-.377.092-.729.2-1.072.347-.691.283-1.324.71-1.871 1.245-1.122 1.058-1.85 2.537-2.255 4.096" fill="#b2b6b8"/><g fill="#4c5359"><ellipse cx="44" cy="32.5" rx="4" ry="4.5"/><ellipse cx="20" cy="32.5" rx="4" ry="4.5"/></g></g></symbol></defs><rect id="svgEditorBackground" x="0" y="0" width="1380" height="760" style="fill: none; stroke: none;"/><g id="e295_group" transform="matrix(1.22918 0 0 1.22918 -4.81904 -14.0127)"/><circle id="e541_circle" cx="8.81681" cy="16.8086" stroke="black" style="stroke-width: 1px; fill-opacity: 0.54;" r="35.7104" fill="mistyrose" transform="matrix(2.42684 0 0 2.42684 -23.6442 -41.7052)"/><use href="#1f63a" id="e609_emoji" width="57.4413" height="57.4413" x="-17.0318" y="-6.95119" transform="matrix(2.12517 0 0 2.12517 -27.1573 -43.0848)"/></svg>